<svg width="255" height="249" viewBox="0 0 255 249" fill="none" xmlns="http://www.w3.org/2000/svg">
<path d="M127.5 0C57.0988 0 0 57.0881 0 127.5C0 183.834 36.5287 231.625 87.1994 248.487C93.5637 249.666 95.625 245.714 95.625 242.356V218.62C60.1587 226.334 52.7744 203.575 52.7744 203.575C46.9731 188.838 38.6113 184.917 38.6113 184.917C27.0406 177.002 39.4931 177.172 39.4931 177.172C52.2963 178.064 59.0325 190.315 59.0325 190.315C70.4013 209.801 88.8569 204.17 96.135 200.908C97.2719 192.674 100.576 187.043 104.231 183.866C75.9156 180.625 46.1444 169.692 46.1444 120.849C46.1444 106.919 51.1275 95.5506 59.2769 86.6256C57.9594 83.4062 53.5925 70.4331 60.52 52.8806C60.52 52.8806 71.23 49.4594 95.5931 65.9494C105.761 63.1231 116.663 61.71 127.5 61.6569C138.337 61.71 149.249 63.1231 159.439 65.9494C183.781 49.4594 194.469 52.8806 194.469 52.8806C201.407 70.4438 197.041 83.4169 195.723 86.6256C203.904 95.5506 208.845 106.93 208.845 120.849C208.845 169.819 179.021 180.604 150.631 183.759C155.199 187.712 159.375 195.468 159.375 207.368V242.356C159.375 245.746 161.415 249.73 167.886 248.476C218.514 231.593 255 183.813 255 127.5C255 57.0881 197.912 0 127.5 0Z" fill="white"/>
</svg>
