<svg width="148" height="23" viewBox="0 0 148 23" fill="none" xmlns="http://www.w3.org/2000/svg">
<path d="M36.4862 22.285C34.5062 22.285 32.6862 21.825 31.0262 20.905C29.3862 19.985 28.0762 18.705 27.0962 17.065C26.1362 15.405 25.6562 13.545 25.6562 11.485C25.6562 9.425 26.1362 7.575 27.0962 5.935C28.0762 4.295 29.3862 3.015 31.0262 2.095C32.6862 1.175 34.5062 0.714996 36.4862 0.714996C38.4662 0.714996 40.2762 1.175 41.9162 2.095C43.5762 3.015 44.8762 4.295 45.8162 5.935C46.7762 7.575 47.2562 9.425 47.2562 11.485C47.2562 13.545 46.7762 15.405 45.8162 17.065C44.8562 18.705 43.5562 19.985 41.9162 20.905C40.2762 21.825 38.4662 22.285 36.4862 22.285ZM36.4862 17.605C38.1662 17.605 39.5062 17.045 40.5062 15.925C41.5262 14.805 42.0362 13.325 42.0362 11.485C42.0362 9.625 41.5262 8.145 40.5062 7.045C39.5062 5.925 38.1662 5.365 36.4862 5.365C34.7862 5.365 33.4262 5.915 32.4062 7.015C31.4062 8.115 30.9062 9.605 30.9062 11.485C30.9062 13.345 31.4062 14.835 32.4062 15.955C33.4262 17.055 34.7862 17.605 36.4862 17.605Z" fill="#A162F7"/>
<path d="M54.9702 18.115H61.6902V22.075H49.8402V1.015H54.9702V18.115Z" fill="#A162F7"/>
<path d="M71.757 1.015C73.977 1.015 75.917 1.455 77.577 2.335C79.237 3.215 80.517 4.455 81.417 6.055C82.337 7.635 82.797 9.465 82.797 11.545C82.797 13.605 82.337 15.435 81.417 17.035C80.517 18.635 79.227 19.875 77.547 20.755C75.887 21.635 73.957 22.075 71.757 22.075H63.867V1.015H71.757ZM71.427 17.635C73.367 17.635 74.877 17.105 75.957 16.045C77.037 14.985 77.577 13.485 77.577 11.545C77.577 9.605 77.037 8.095 75.957 7.015C74.877 5.935 73.367 5.395 71.427 5.395H68.997V17.635H71.427Z" fill="#A162F7"/>
<path d="M96.1339 22.075L91.7539 14.125H90.5239V22.075H85.3939V1.015H94.0039C95.6639 1.015 97.0739 1.305 98.2339 1.885C99.4139 2.465 100.294 3.265 100.874 4.285C101.454 5.285 101.744 6.405 101.744 7.645C101.744 9.045 101.344 10.295 100.544 11.395C99.7639 12.495 98.6039 13.275 97.0639 13.735L101.924 22.075H96.1339ZM90.5239 10.495H93.7039C94.6439 10.495 95.3439 10.265 95.8039 9.805C96.2839 9.345 96.5239 8.695 96.5239 7.855C96.5239 7.055 96.2839 6.425 95.8039 5.965C95.3439 5.505 94.6439 5.275 93.7039 5.275H90.5239V10.495Z" fill="#A162F7"/>
<path d="M147.576 7.795C147.576 9.015 147.296 10.135 146.736 11.155C146.176 12.155 145.316 12.965 144.156 13.585C142.996 14.205 141.556 14.515 139.836 14.515H136.656V22.075H131.526V1.015H139.836C141.516 1.015 142.936 1.305 144.096 1.885C145.256 2.465 146.126 3.265 146.706 4.285C147.286 5.305 147.576 6.475 147.576 7.795ZM139.446 10.435C140.426 10.435 141.156 10.205 141.636 9.745C142.116 9.285 142.356 8.635 142.356 7.795C142.356 6.955 142.116 6.305 141.636 5.845C141.156 5.385 140.426 5.155 139.446 5.155H136.656V10.435H139.446Z" fill="#A162F7"/>
<path d="M115.3 6.27683V1.76669C115.3 1.28713 115.683 0.887497 116.166 0.887497C116.599 0.887497 116.966 1.2233 117.025 1.64865L117.033 1.76669V6.27683L122.41 6.27718C125.087 6.27718 127.287 8.46975 127.411 11.2042L127.416 11.4468V17.1161C127.416 19.8697 125.293 22.13 122.655 22.2569L122.421 22.2625H109.911C107.234 22.2625 105.045 20.0809 104.922 17.3364L104.916 17.0928V11.4352C104.916 8.68161 107.029 6.41036 109.666 6.28282L109.9 6.27718L115.3 6.27683L115.3 13.4799L113.5 11.6211C113.162 11.2726 112.611 11.2726 112.274 11.6211C112.105 11.7954 112.026 12.0277 112.026 12.2601C112.026 12.4366 112.077 12.6207 112.183 12.7764L112.274 12.8874L115.547 16.2796C115.705 16.4539 115.93 16.5468 116.166 16.5468C116.354 16.5468 116.541 16.4823 116.69 16.3599L116.774 16.2796L120.047 12.8874C120.385 12.5389 120.385 11.9696 120.047 11.6211C119.741 11.3043 119.257 11.2755 118.918 11.5347L118.821 11.6211L117.032 13.4799L117.033 6.27683H115.3Z" fill="#A162F7"/>
<path fill-rule="evenodd" clip-rule="evenodd" d="M4.00817 17.088C4.08342 17.0052 4.17514 16.9391 4.27742 16.8938C4.37969 16.8485 4.49032 16.8251 4.60217 16.825L22.9302 16.84C23.0082 16.8401 23.0845 16.863 23.1499 16.9057C23.2152 16.9484 23.2667 17.0092 23.2982 17.0806C23.3296 17.152 23.3397 17.231 23.3271 17.3081C23.3145 17.3851 23.2798 17.4568 23.2272 17.5145L19.3242 21.812C19.2489 21.8948 19.1571 21.961 19.0547 22.0063C18.9523 22.0516 18.8416 22.075 18.7297 22.075L0.402181 22.06C0.324131 22.0598 0.247803 22.037 0.182476 21.9943C0.117146 21.9516 0.0656255 21.8908 0.0341731 21.8194C0.00271805 21.748 -0.00731445 21.6689 0.00529055 21.5919C0.0178955 21.5149 0.052598 21.4432 0.105181 21.3855L4.00817 17.088ZM23.2272 13.5105C23.2798 13.5682 23.3145 13.6399 23.3271 13.7169C23.3397 13.7939 23.3296 13.873 23.2982 13.9444C23.2667 14.0158 23.2152 14.0766 23.1499 14.1193C23.0845 14.162 23.0082 14.1848 22.9302 14.185L4.60267 14.2C4.49074 14.2 4.38002 14.1766 4.27764 14.1313C4.17527 14.086 4.08349 14.0198 4.00817 13.937L0.105181 9.637C0.052598 9.57932 0.0178955 9.5076 0.00529055 9.43057C-0.00731445 9.35355 0.00271805 9.27452 0.0341731 9.2031C0.0656255 9.13165 0.117146 9.0709 0.182476 9.0282C0.247803 8.98547 0.324131 8.96265 0.402181 8.9625L18.7302 8.9475C18.842 8.94757 18.9527 8.971 19.0549 9.0163C19.1572 9.06157 19.2489 9.12772 19.3242 9.2105L23.2272 13.5105ZM4.00817 1.338C4.08342 1.25523 4.17514 1.18908 4.27742 1.14379C4.37969 1.0985 4.49032 1.07507 4.60217 1.075L22.9302 1.09C23.0082 1.09016 23.0845 1.11298 23.1499 1.15569C23.2152 1.1984 23.2667 1.25916 23.2982 1.33059C23.3296 1.40202 23.3397 1.48105 23.3271 1.55808C23.3145 1.63511 23.2798 1.70682 23.2272 1.7645L19.3242 6.062C19.2489 6.14482 19.1571 6.21102 19.0547 6.2563C18.9523 6.3016 18.8416 6.325 18.7297 6.325L0.402181 6.31C0.324131 6.30985 0.247803 6.28702 0.182476 6.2443C0.117146 6.2016 0.0656255 6.14085 0.0341731 6.0694C0.00271805 5.99797 -0.00731445 5.91895 0.00529055 5.84192C0.0178955 5.7649 0.052598 5.69317 0.105181 5.6355L4.00817 1.338Z" fill="#A162F7"/>
</svg>
