<svg width="22" height="16" viewBox="0 0 22 16" fill="none" xmlns="http://www.w3.org/2000/svg">
<path d="M17.105 0.000342676L13.8932 0.000133349C12.7632 5.97037e-05 11.8471 0.91607 11.8471 2.04606L11.847 4.65603C11.847 5.57257 12.9682 6.01685 13.596 5.34907L13.6909 5.26258C14.0223 5.00312 14.495 5.03195 14.795 5.34907C15.125 5.6979 15.125 6.26765 14.795 6.61648L11.594 10.0118L11.5118 10.0921C11.3667 10.2146 11.1833 10.2792 11 10.2792C10.769 10.2792 10.549 10.1862 10.395 10.0118L7.194 6.61648L7.10547 6.50541C7.00128 6.34951 6.952 6.16533 6.952 5.98859C6.952 5.75603 7.029 5.52348 7.194 5.34907C7.524 5.00024 8.063 5.00024 8.393 5.34907C9.02658 6.01879 10.153 5.57041 10.153 4.64848L10.1531 2.05286C10.1531 0.919124 9.23399 5.96506e-05 8.10025 0.00013323L4.873 0.000342676L4.64419 0.00599588C2.0657 0.133648 0 2.40694 0 5.16302V10.8257L0.00532156 11.0695C0.125499 13.8164 2.266 16 4.884 16H17.116L17.3448 15.9944C19.9239 15.8674 22 13.605 22 10.8489V5.17465L21.9947 4.93179C21.8739 2.19488 19.723 0.000342676 17.105 0.000342676Z" fill="url(#paint0_linear_1718_1492)"/>
<defs>
<linearGradient id="paint0_linear_1718_1492" x1="-1.46667" y1="0.611205" x2="23.6892" y2="12.6577" gradientUnits="userSpaceOnUse">
<stop stop-color="#A162F7"/>
<stop offset="1" stop-color="#F76262"/>
</linearGradient>
</defs>
</svg>
