<svg width="153" height="23" viewBox="0 0 153 23" fill="none" xmlns="http://www.w3.org/2000/svg">
<path d="M36.82 22.21C34.84 22.21 33.02 21.75 31.36 20.83C29.72 19.91 28.41 18.63 27.43 16.99C26.47 15.33 25.99 13.47 25.99 11.41C25.99 9.35 26.47 7.5 27.43 5.85999C28.41 4.22 29.72 2.94 31.36 2.02C33.02 1.1 34.84 0.639996 36.82 0.639996C38.8 0.639996 40.61 1.1 42.25 2.02C43.91 2.94 45.21 4.22 46.15 5.85999C47.11 7.5 47.59 9.35 47.59 11.41C47.59 13.47 47.11 15.33 46.15 16.99C45.19 18.63 43.89 19.91 42.25 20.83C40.61 21.75 38.8 22.21 36.82 22.21ZM36.82 17.53C38.5 17.53 39.84 16.97 40.84 15.85C41.86 14.73 42.37 13.25 42.37 11.41C42.37 9.55 41.86 8.07 40.84 6.97C39.84 5.85 38.5 5.29 36.82 5.29C35.12 5.29 33.76 5.84 32.74 6.94C31.74 8.04 31.24 9.53 31.24 11.41C31.24 13.27 31.74 14.76 32.74 15.88C33.76 16.98 35.12 17.53 36.82 17.53Z" fill="url(#paint0_linear_1710_1535)"/>
<path d="M55.304 18.04H62.024V22H50.174V0.939996H55.304V18.04Z" fill="url(#paint1_linear_1710_1535)"/>
<path d="M72.0909 0.939996C74.3109 0.939996 76.2509 1.38 77.9109 2.25999C79.5709 3.14 80.8509 4.38 81.7509 5.98C82.6709 7.56 83.1309 9.39 83.1309 11.47C83.1309 13.53 82.6709 15.36 81.7509 16.96C80.8509 18.56 79.5609 19.8 77.8809 20.68C76.2209 21.56 74.2909 22 72.0909 22H64.2009V0.939996H72.0909ZM71.7609 17.56C73.7009 17.56 75.2109 17.03 76.2909 15.97C77.3709 14.91 77.9109 13.41 77.9109 11.47C77.9109 9.53 77.3709 8.02 76.2909 6.94C75.2109 5.85999 73.7009 5.31999 71.7609 5.31999H69.3309V17.56H71.7609Z" fill="url(#paint2_linear_1710_1535)"/>
<path d="M96.4677 22L92.0877 14.05H90.8577V22H85.7277V0.939996H94.3377C95.9977 0.939996 97.4077 1.23 98.5677 1.81C99.7477 2.38999 100.628 3.18999 101.208 4.20999C101.788 5.21 102.078 6.33 102.078 7.57C102.078 8.97 101.678 10.22 100.878 11.32C100.098 12.42 98.9377 13.2 97.3977 13.66L102.258 22H96.4677ZM90.8577 10.42H94.0377C94.9777 10.42 95.6777 10.19 96.1377 9.73C96.6177 9.27 96.8577 8.62 96.8577 7.78C96.8577 6.98 96.6177 6.35 96.1377 5.89C95.6777 5.43 94.9777 5.2 94.0377 5.2H90.8577V10.42Z" fill="url(#paint3_linear_1710_1535)"/>
<path d="M152.91 7.72C152.91 8.94 152.63 10.06 152.07 11.08C151.51 12.08 150.65 12.89 149.49 13.51C148.33 14.13 146.89 14.44 145.17 14.44H141.99V22H136.86V0.939996H145.17C146.85 0.939996 148.27 1.23 149.43 1.81C150.59 2.38999 151.46 3.18999 152.04 4.20999C152.62 5.22999 152.91 6.39999 152.91 7.72ZM144.78 10.36C145.76 10.36 146.49 10.13 146.97 9.67C147.45 9.21 147.69 8.56 147.69 7.72C147.69 6.88 147.45 6.23 146.97 5.77C146.49 5.31 145.76 5.08 144.78 5.08H141.99V10.36H144.78Z" fill="url(#paint4_linear_1710_1535)"/>
<path fill-rule="evenodd" clip-rule="evenodd" d="M4.342 17.013C4.41725 16.9302 4.50898 16.8641 4.61125 16.8188C4.71352 16.7735 4.82415 16.7501 4.936 16.75L23.264 16.765C23.3421 16.7651 23.4184 16.788 23.4837 16.8307C23.549 16.8734 23.6006 16.9342 23.632 17.0056C23.6635 17.077 23.6735 17.156 23.6609 17.2331C23.6483 17.3101 23.6136 17.3818 23.561 17.4395L19.658 21.737C19.5827 21.8198 19.4909 21.886 19.3885 21.9313C19.2862 21.9766 19.1754 22 19.0635 22L0.736012 21.985C0.657962 21.9848 0.581635 21.962 0.516307 21.9193C0.450977 21.8766 0.399457 21.8158 0.368005 21.7444C0.33655 21.673 0.326517 21.5939 0.339122 21.5169C0.351727 21.4399 0.38643 21.3682 0.439012 21.3105L4.342 17.013ZM23.561 13.4355C23.6136 13.4932 23.6483 13.5649 23.6609 13.6419C23.6735 13.7189 23.6635 13.798 23.632 13.8694C23.6006 13.9408 23.549 14.0016 23.4837 14.0443C23.4184 14.087 23.3421 14.1098 23.264 14.11L4.9365 14.125C4.82457 14.125 4.71385 14.1016 4.61147 14.0563C4.5091 14.011 4.41733 13.9448 4.342 13.862L0.439012 9.562C0.38643 9.50432 0.351727 9.4326 0.339122 9.35557C0.326517 9.27855 0.33655 9.19952 0.368005 9.1281C0.399457 9.05665 0.450977 8.9959 0.516307 8.9532C0.581635 8.91047 0.657962 8.88765 0.736012 8.8875L19.064 8.8725C19.1759 8.87257 19.2865 8.896 19.3888 8.9413C19.4911 8.98657 19.5828 9.05272 19.658 9.1355L23.561 13.4355ZM4.342 1.263C4.41725 1.18023 4.50898 1.11408 4.61125 1.06879C4.71352 1.0235 4.82415 1.00007 4.936 0.999996L23.264 1.015C23.3421 1.01516 23.4184 1.03798 23.4837 1.08069C23.549 1.1234 23.6006 1.18416 23.632 1.25559C23.6635 1.32702 23.6735 1.40605 23.6609 1.48308C23.6483 1.56011 23.6136 1.63182 23.561 1.6895L19.658 5.987C19.5827 6.06982 19.4909 6.13602 19.3885 6.1813C19.2862 6.2266 19.1754 6.25 19.0635 6.25L0.736012 6.235C0.657962 6.23485 0.581635 6.21202 0.516307 6.1693C0.450977 6.1266 0.399457 6.06585 0.368005 5.9944C0.33655 5.92297 0.326517 5.84395 0.339122 5.76692C0.351727 5.6899 0.38643 5.61817 0.439012 5.5605L4.342 1.263Z" fill="url(#paint5_linear_1710_1535)"/>
<path d="M127.548 0.500446L121.617 0.500061C121.064 0.500025 120.617 0.947741 120.617 1.50005L120.617 7.44665C120.617 8.35147 121.722 8.79109 122.344 8.13319L122.922 7.52064L123.047 7.40713C123.484 7.06659 124.107 7.10443 124.503 7.52064C124.938 7.97848 124.938 8.72629 124.503 9.18412L120.283 13.6404L120.175 13.7459C119.983 13.9067 119.742 13.9914 119.5 13.9914C119.196 13.9914 118.906 13.8693 118.702 13.6404L114.483 9.18412L114.366 9.03835C114.229 8.83373 114.164 8.59199 114.164 8.36002C114.164 8.05479 114.266 7.74956 114.483 7.52064C114.918 7.06281 115.629 7.06281 116.063 7.52064L116.659 8.14697C117.281 8.80181 118.384 8.36147 118.384 7.45819L118.384 1.50008C118.384 0.947761 117.936 0.500025 117.384 0.500061L111.424 0.500446L111.122 0.507866C107.723 0.67541 105 3.6591 105 7.27646V14.7087L105.007 15.0287C105.165 18.6341 107.987 21.5 111.438 21.5H127.562L127.864 21.4926C131.263 21.3259 134 18.3566 134 14.7392V7.29173L133.993 6.97297C133.834 3.38078 130.999 0.500446 127.548 0.500446Z" fill="url(#paint6_linear_1710_1535)"/>
<defs>
<linearGradient id="paint0_linear_1710_1535" x1="-9.83791" y1="1.32939" x2="20.8407" y2="76.4192" gradientUnits="userSpaceOnUse">
<stop stop-color="#A162F7"/>
<stop offset="1" stop-color="#F76262"/>
</linearGradient>
<linearGradient id="paint1_linear_1710_1535" x1="-9.83791" y1="1.32939" x2="20.8407" y2="76.4192" gradientUnits="userSpaceOnUse">
<stop stop-color="#A162F7"/>
<stop offset="1" stop-color="#F76262"/>
</linearGradient>
<linearGradient id="paint2_linear_1710_1535" x1="-9.83791" y1="1.32939" x2="20.8407" y2="76.4192" gradientUnits="userSpaceOnUse">
<stop stop-color="#A162F7"/>
<stop offset="1" stop-color="#F76262"/>
</linearGradient>
<linearGradient id="paint3_linear_1710_1535" x1="-9.83791" y1="1.32939" x2="20.8407" y2="76.4192" gradientUnits="userSpaceOnUse">
<stop stop-color="#A162F7"/>
<stop offset="1" stop-color="#F76262"/>
</linearGradient>
<linearGradient id="paint4_linear_1710_1535" x1="-9.83791" y1="1.32939" x2="20.8407" y2="76.4192" gradientUnits="userSpaceOnUse">
<stop stop-color="#A162F7"/>
<stop offset="1" stop-color="#F76262"/>
</linearGradient>
<linearGradient id="paint5_linear_1710_1535" x1="-9.83791" y1="1.32939" x2="20.8407" y2="76.4192" gradientUnits="userSpaceOnUse">
<stop stop-color="#A162F7"/>
<stop offset="1" stop-color="#F76262"/>
</linearGradient>
<linearGradient id="paint6_linear_1710_1535" x1="-9.83791" y1="1.32939" x2="20.8407" y2="76.4192" gradientUnits="userSpaceOnUse">
<stop stop-color="#A162F7"/>
<stop offset="1" stop-color="#F76262"/>
</linearGradient>
</defs>
</svg>
